<?xml version="1.0" encoding="UTF-8" standalone="no" ?>
<!DOCTYPE svg PUBLIC "-//W3C//DTD SVG 1.1//EN" "http://www.w3.org/Graphics/SVG/1.1/DTD/svg11.dtd">
<svg xmlns="http://www.w3.org/2000/svg" xmlns:xlink="http://www.w3.org/1999/xlink" version="1.1" width="580" height="605" viewBox="0 0 527.27 550" xml:space="preserve">
<desc>Created with Fabric.js 3.6.3</desc>
<defs>
</defs>
<g transform="matrix(0.14 0 0 -0.14 263.66 274.99)"  >
<path style="stroke: none; stroke-width: 1; stroke-dasharray: none; stroke-linecap: butt; stroke-dashoffset: 0; stroke-linejoin: miter; stroke-miterlimit: 4; fill: rgb(153,0,0); fill-rule: nonzero; opacity: 1;"  transform=" translate(-2250.16, -21445.15)" d="M 2223 23308 l -19 -73 l -120 -12 c -360 -37 -686 -163 -960 -373 c -102 -78 -259 -233 -339 -335 c -525 -670 -525 -1620 0 -2290 c 102 -130 339 -351 432 -404 c 10 -5 6 -29 -17 -111 c -16 -57 -28 -105 -27 -107 c 2 -1 27 38 56 87 l 52 89 l 102 -54 c 414 -216 876 -271 1330 -156 c 139 35 268 85 404 156 l 102 54 l 52 -89 c 29 -49 54 -88 56 -87 c 1 2 -11 50 -27 107 c -23 82 -27 106 -17 111 c 94 53 329 273 432 404 c 475 606 525 1447 126 2108 c -72 119 -157 227 -269 341 c -314 319 -700 502 -1156 549 l -120 12 l -19 73 c -11 39 -23 72 -27 72 c -4 0 -16 -33 -27 -72 z m -53 -183 c 0 -3 -105 -375 -234 -828 c -129 -452 -334 -1174 -456 -1604 l -223 -782 l -45 32 c -280 199 -519 527 -631 863 c -74 221 -85 298 -85 564 c 0 266 11 343 85 564 c 207 622 751 1078 1408 1181 c 89 14 181 19 181 10 z m 425 -26 c 619 -125 1127 -572 1324 -1165 c 74 -221 85 -298 85 -564 c 0 -266 -11 -343 -85 -564 c -112 -338 -349 -662 -631 -863 l -45 -32 l -223 782 c -122 430 -327 1152 -456 1604 c -129 453 -234 826 -234 829 c 0 11 157 -5 265 -27 z m -226 -1268 c 202 -103 196 -402 -9 -490 c -50 -22 -50 -22 -36 -49 c 8 -15 201 -342 429 -727 c 384 -647 413 -701 396 -713 c -50 -35 -230 -116 -335 -151 c -221 -74 -298 -85 -564 -85 c -266 0 -343 11 -564 85 c -105 35 -285 116 -335 152 c -17 11 11 62 381 687 c 219 371 413 698 429 727 l 30 52 l -51 22 c -231 99 -200 446 45 510 c 46 12 141 2 184 -20 z" stroke-linecap="round" />
</g>
</svg>